<?xml version="1.0" encoding="utf-8"?>
<!-- Generator: Adobe Illustrator 20.1.0, SVG Export Plug-In . SVG Version: 6.00 Build 0)  -->
<svg version="1.1" id="GrupoSelpe" xmlns="http://www.w3.org/2000/svg" xmlns:xlink="http://www.w3.org/1999/xlink" x="0px" y="0px"
	 viewBox="0 0 666.1 255.1" style="enable-background:new 0 0 666.1 255.1;" xml:space="preserve">
<style type="text/css">
	.st0{fill:#454547;}
	.st1{fill:#008CCF;}
	.st2{fill:#0071BB;}
	.st3{fill:#0060AE;}
	.st4{fill:#0054A5;}
	.st5{fill:#034EA1;}
	.st6{fill:#17479D;}
</style>
<g>
	<path class="st0" d="M483.6,100.7c5.5,0,11.1,1.2,17.2,3.5l-2.3,7.4c-5.1-2-9.9-3.1-14.2-3.1c-5.8,0-9.6,2.5-9.6,6.5
		c0,10.8,27.8,3.8,27.8,23.1c0,8.8-7.7,14.7-19,14.7c-5.8,0-12.1-1.3-19-4.1l2.3-7.4c5.8,2.3,11.4,3.7,16,3.7c6.2,0,10-2.6,10-6.8
		c0-11.1-27.9-4.2-27.9-23.1C465,106.6,472.6,100.7,483.6,100.7z"/>
	<path class="st0" d="M525.8,114.4c10.4,0,17.7,7.6,17.7,18.6c0,1-0.1,2.1-0.2,3.1h-26.8c0.7,5.8,5.3,9.7,11.6,9.7
		c3.2,0,6.8-1,10.6-3.1l2.9,6.5c-5.2,2.5-10.3,3.7-14.7,3.7c-11.8,0-20-8-20-19.3C507,122.3,514.7,114.4,525.8,114.4z M516.6,130.3
		h17.7c-0.3-5.3-3.7-8.8-8.5-8.8C520.9,121.5,517.2,125,516.6,130.3z"/>
	<path class="st0" d="M559.2,141.5c0,2.3,1.5,3.8,3.8,3.8c0.9,0,2.1-0.2,3.3-0.5l1,7.3c-2.4,0.5-4.7,0.8-6.7,0.8
		c-6.8,0-11-4-11-10.4V99.2h9.6V141.5z"/>
	<path class="st0" d="M571.3,115.3h7.6l1.2,4.7c2.7-3.6,6.9-5.6,11.8-5.6c9.9,0,16.9,7.9,16.9,19.3c0,11.3-7,19.3-16.9,19.3
		c-4.5,0-8.4-1.8-11-5.1v19.8h-9.6V115.3z M589.5,121.9c-5.1,0-8.7,3.8-8.7,9.2v4.9c0,5.3,3.6,9.2,8.7,9.2c5.6,0,9.6-4.9,9.6-11.7
		C599.1,126.7,595.1,121.9,589.5,121.9z"/>
	<path class="st0" d="M632,114.4c10.4,0,17.7,7.6,17.7,18.6c0,1-0.1,2.1-0.2,3.1h-26.8c0.7,5.8,5.3,9.7,11.6,9.7
		c3.2,0,6.8-1,10.6-3.1l2.9,6.5c-5.2,2.5-10.3,3.7-14.7,3.7c-11.8,0-20-8-20-19.3C613.2,122.3,620.9,114.4,632,114.4z M622.8,130.3
		h17.7c-0.3-5.3-3.7-8.8-8.5-8.8C627.1,121.5,623.4,125,622.8,130.3z"/>
	<path class="st0" d="M311.4,148.9c-5.5,2.6-11.3,4-17.1,4c-14.7,0-25-10.4-25-25.1c0-14.7,10.1-25.1,24.4-25.1
		c5.6,0,11.3,1.7,16.9,4.8l-2.2,4.1c-4.8-2.7-9.4-4.2-14-4.2c-11.3,0-19.2,8.4-19.2,20.4c0,12,8,20.4,19.5,20.4
		c4,0,7.7-0.9,11.2-2.4v-14.4h-12.2v-4.5h17.7V148.9z"/>
	<path class="st0" d="M319.9,117h4.6l0.7,6.6c1.7-4.5,5.8-7.2,10.9-7.2c1.3,0,2.9,0.2,4.4,0.6l-0.6,4.7c-1.4-0.3-2.8-0.5-4.2-0.5
		c-6,0-10.1,4.8-10.1,11.9V152h-5.7V117z"/>
	<path class="st0" d="M376.8,152h-4.6l-0.7-6.4c-2.4,4.6-7.1,7.3-12.7,7.3c-7.8,0-13.2-5.3-13.2-13V117h5.7v22c0,5.3,3.9,9,9.2,9
		c6,0,10.6-4.6,10.6-11.3V117h5.8V152z"/>
	<path class="st0" d="M384.6,117h4.6l0.7,5.8c2.4-4.3,6.8-6.7,12-6.7c9.1,0,15.8,7.6,15.8,18.4c0,10.7-6.6,18.4-15.8,18.4
		c-5,0-9.1-2.3-11.7-6.3V167h-5.7V117z M400.5,120.8c-6.1,0-10.4,4.5-10.4,10.9v5.6c0,6.4,4.2,10.9,10.4,10.9
		c6.6,0,11.3-5.6,11.3-13.7C411.9,126.5,407.1,120.8,400.5,120.8z"/>
	<path class="st0" d="M440.8,116.2c10.4,0,17.8,7.6,17.8,18.4c0,10.8-7.4,18.4-17.8,18.4c-10.4,0-17.9-7.6-17.9-18.4
		C422.9,123.7,430.3,116.2,440.8,116.2z M440.8,148.3c7,0,12-5.6,12-13.8c0-8.1-5-13.8-12-13.8c-7.1,0-12,5.7-12,13.8
		C428.8,142.7,433.7,148.3,440.8,148.3z"/>
</g>
<g>
	<path class="st1" d="M188.7,35.8L122,14.2L55.4,35.8L14.2,92.5v70.1l41.2,56.7l66.6,21.7l66.6-21.7l41.2-56.7V92.5L188.7,35.8z
		 M186.7,148.6l-24.7,34l-40,13l-40-13l-24.7-34v-42l24.7-34l40-13l40,13l24.7,34V148.6z"/>
	<path class="st2" d="M186.6,193.1l-4.6,17.1l-25-6.1l-7.5,8l39.2,7.3l-0.7-27.2L186.6,193.1z M14.2,92.5l36-17.2l1.2-9L14.2,92.5z"
		/>
	<path class="st2" d="M14.2,162.6L53,201.1l-2.3-17.4L25,159.1l-2-12.6L14.2,162.6z M187.8,66.1L209,86.4l20.9,6.2l-41.6-41.3
		L187.8,66.1z M51.3,66.4l9.6-6.7L62,45l11.3-5.8l-18-3.3L51.3,66.4z"/>
	<path class="st3" d="M60.9,59.7l-9.6,6.7l-1.2,9l9.9-4.7L60.9,59.7z M186.6,193.1l-11.2,7.9l-14-1.4l-4.3,4.5l25,6.1L186.6,193.1z"
		/>
	<polygon class="st2" points="221.1,108.6 222.1,115 229.8,92.5 	"/>
	<polygon class="st3" points="219.1,96 221.1,108.6 229.8,92.5 209,86.4 	"/>
	<polygon class="st2" points="53,201.1 55.4,219.3 106.6,218.5 99.5,208.1 62,210.1 	"/>
	<polygon class="st3" points="95.4,202 62,210.1 99.5,208.1 	"/>
	<polygon class="st3" points="50.7,183.7 53,201.1 62,210.1 60.7,193.3 	"/>
	<polygon class="st4" points="60.7,193.3 62,210.1 95.4,202 92.9,198.5 68.7,200.9 	"/>
	<polygon class="st2" points="122,14.2 73.4,39.2 99.8,44.1 108.7,41.2 122,25.5 131.5,36.7 151.6,36.4 	"/>
	<polygon class="st3" points="108.7,41.2 99.8,44.1 105.3,45.1 	"/>
	<polygon class="st3" points="73.4,39.2 62,45 60.9,59.7 68.7,54.2 99.8,44.1 	"/>
	<polygon class="st4" points="99.8,44.1 68.7,54.2 60.9,59.7 60.1,70.6 75.4,63.3 103.3,47.5 105.3,45.1 	"/>
	<polygon class="st3" points="187.8,66.1 187.4,80 209,86.4 	"/>
	<polygon class="st2" points="213.3,141 229.8,162.6 222.1,115 	"/>
	<polygon class="st3" points="25,159.1 25,159.1 50.7,183.7 48.7,168.9 	"/>
	<polygon class="st2" points="189.6,181.8 187.8,188.4 187.9,192.1 229.8,162.6 	"/>
	<polygon class="st3" points="187.8,188.4 186.6,193.1 187.9,192.1 	"/>
	<polygon class="st3" points="189.6,181.8 187.7,182.7 187.8,188.4 	"/>
	<polygon class="st4" points="187.7,182.7 168.7,191.8 161.3,199.5 175.3,200.9 186.6,193.1 187.8,188.4 	"/>
	<polygon class="st3" points="122,25.5 108.7,41.2 122,36.9 131.5,36.7 	"/>
	<polygon class="st4" points="122,36.9 108.7,41.2 105.3,45.1 107,45.4 	"/>
	<polygon class="st5" points="105.3,45.1 103.3,47.5 107,45.4 	"/>
	<polygon class="st3" points="221.1,108.6 207.5,133.6 213.3,141 222.1,115 	"/>
	<polygon class="st4" points="187.4,80 187.4,80.8 197.5,103 194.3,116.4 207.5,133.6 221.1,108.6 219.1,96 209,86.4 	"/>
	<polygon class="st5" points="187.4,80.8 186.7,106.5 194.3,116.4 197.5,103 	"/>
	<polygon class="st4" points="48.7,168.9 50.7,183.7 60.7,193.3 59.2,173.2 	"/>
	<polygon class="st5" points="59.2,173.2 60.7,193.3 68.7,200.9 92.9,198.5 82,182.6 	"/>
	<polygon class="st2" points="188.7,35.8 151.6,36.4 164.3,45.9 182,45 188.2,51.2 	"/>
	<polygon class="st3" points="182,45 164.3,45.9 175.3,54.2 187.8,66.1 188.2,51.2 	"/>
	<polygon class="st2" points="22.9,146.5 36.5,121.5 14.2,92.5 	"/>
	<polygon class="st3" points="14.2,92.5 36.5,121.5 39.2,116.5 35.7,99.5 47.9,92.4 50.2,75.4 	"/>
	<polygon class="st3" points="36.5,121.5 22.9,146.5 25,159.1 42.2,131.1 41.6,128.2 	"/>
	<path class="st4" d="M60.1,70.6l-9.9,4.7l-2.2,17.1l11-6.4L60.1,70.6z M39.2,116.5l-2.7,5l5.1,6.7L39.2,116.5z"/>
	<polygon class="st2" points="122,218.3 106.6,218.5 122,240.9 149.5,212 132.5,208.9 	"/>
	<polygon class="st3" points="142,200.4 132.5,208.9 149.5,212 157,204.1 	"/>
	<polygon class="st4" points="144.9,197.9 142,200.4 157,204.1 161.3,199.5 	"/>
	<polygon class="st4" points="47.9,92.4 35.7,99.5 39.2,116.5 46.5,103 	"/>
	<polygon class="st4" points="41.6,128.2 42.2,131.1 42.9,129.9 	"/>
	<polygon class="st5" points="58.9,86 47.9,92.4 46.5,103 39.2,116.5 41.6,128.2 42.9,129.9 57.3,106.5 	"/>
	<polygon class="st3" points="122,206.9 99.5,208.1 106.6,218.5 122,218.3 132.5,208.9 	"/>
	<polygon class="st4" points="122,195.6 95.4,202 99.5,208.1 122,206.9 132.5,208.9 142,200.4 	"/>
	<polygon class="st5" points="122,195.6 92.9,198.5 95.4,202 122,195.6 142,200.4 144.9,197.9 	"/>
	<polygon class="st3" points="151.6,36.4 131.5,36.7 135.3,41.2 152,46.6 164.3,45.9 	"/>
	<polygon class="st4" points="135.3,41.2 140.5,47.2 152,46.6 	"/>
	<polygon class="st4" points="164.3,45.9 152,46.6 175.3,54.2 187,79.9 187.4,80 187.8,66.1 175.3,54.2 	"/>
	<path class="st5" d="M152,46.6l-11.5,0.6L162,72.5l25,7.4l-11.7-25.7L152,46.6z M103.3,47.5l-28,15.9l-15.3,7.3L58.9,86L82,72.5
		L103.3,47.5z"/>
	<polygon class="st4" points="42.2,131.1 25,159.1 48.7,168.9 46.5,152.1 	"/>
	<polygon class="st3" points="208.3,155.6 194.4,163.7 189.6,181.8 229.8,162.6 213.3,141 	"/>
	<polygon class="st4" points="194.4,163.7 187.2,167.9 187.7,182.7 189.6,181.8 	"/>
	<polygon class="st5" points="187.2,167.9 162,182.6 144.9,197.9 161.3,199.5 168.7,191.8 187.7,182.7 	"/>
	<path class="st4" d="M131.5,36.7l-9.5,0.1l13.3,4.3L131.5,36.7z M207.5,133.6l-10,18.5l-3.1,11.6l13.9-8.1l5-14.6L207.5,133.6z"/>
	<polygon class="st5" points="122,36.9 122,36.9 107,45.4 122,48.2 140.5,47.2 135.3,41.2 	"/>
	<path class="st5" d="M187,79.9l0.4,0.9l0-0.8L187,79.9z M194.3,116.4l-7.6,32.2l0.5,19.3l7.2-4.2l3.1-11.6l10-18.5L194.3,116.4z
		 M42.9,129.9l-0.7,1.2l4.3,21l2.2,16.8l10.5,4.3l-1.9-24.6L42.9,129.9z"/>
	<g>
		<polygon class="st6" points="122,59.5 162,72.5 186.7,106.5 186.7,148.6 194.3,116.4 186.7,106.5 187.4,80.8 187,79.9 162,72.5 
			140.5,47.2 122,48.2 107,45.4 103.3,47.5 82,72.5 		"/>
		<polygon class="st6" points="162,182.6 122,195.6 82,182.6 57.3,148.6 57.3,106.5 82,72.5 58.9,86 57.3,106.5 42.9,129.9 
			57.3,148.6 59.2,173.2 82,182.6 92.9,198.5 122,195.6 144.9,197.9 162,182.6 187.2,167.9 186.7,148.6 		"/>
	</g>
</g>
</svg>
